<?xml version="1.0" standalone="no"?>
<!DOCTYPE svg PUBLIC "-//W3C//DTD SVG 20010904//EN"
 "http://www.w3.org/TR/2001/REC-SVG-20010904/DTD/svg10.dtd">
<svg version="1.0" xmlns="http://www.w3.org/2000/svg"
 width="1250.000000pt" height="1250.000000pt" viewBox="0 0 1250.000000 1250.000000"
 preserveAspectRatio="xMidYMid meet">
<metadata>
Created by potrace 1.11, written by Peter Selinger 2001-2013
</metadata>
<g transform="translate(0.000000,1250.000000) scale(0.100000,-0.100000)"
fill="#000000" stroke="none">
<path d="M0 6250 l0 -6250 6250 0 6250 0 0 6250 0 6250 -6250 0 -6250 0 0
-6250z m5880 3532 l0 -659 -127 -6 c-584 -30 -1071 -260 -1542 -727 -487 -483
-749 -969 -801 -1487 -5 -54 -12 -137 -16 -185 l-6 -88 -655 0 -656 0 6 168
c19 524 150 1009 399 1475 l58 107 0 728 c0 811 -3 771 69 819 l34 23 711 0
711 0 220 109 c121 61 283 133 360 161 368 136 757 208 1178 219 l57 1 0 -658z
m1138 632 c304 -32 575 -95 857 -201 111 -42 400 -178 505 -238 l45 -25 683 0
c762 0 730 3 774 -69 l23 -36 5 -695 5 -695 41 -70 c75 -127 191 -368 242
-505 138 -368 204 -698 219 -1082 l6 -168 -656 0 -655 0 -6 88 c-30 433 -109
700 -302 1029 -180 306 -504 668 -804 899 -383 295 -784 445 -1253 470 l-127
7 0 660 0 659 128 -7 c70 -3 191 -13 270 -21z m-3623 -4641 c23 -353 82 -588
215 -858 135 -276 328 -534 605 -810 312 -312 656 -527 1010 -633 164 -49 440
-92 591 -92 l64 0 0 -661 0 -661 -122 6 c-569 31 -1011 142 -1460 367 l-98 49
-767 0 c-739 0 -770 1 -811 20 -33 15 -47 29 -62 62 -19 41 -20 72 -20 801 l0
758 -55 101 c-247 455 -383 955 -402 1481 l-6 167 656 0 655 0 7 -97z m7018
-68 c-4 -507 -159 -1062 -427 -1535 l-71 -125 -5 -725 c-5 -702 -6 -726 -25
-759 -11 -19 -33 -43 -48 -55 -28 -21 -35 -21 -790 -26 l-762 -5 -135 -67
c-423 -208 -860 -316 -1397 -343 l-133 -7 0 660 0 659 125 6 c458 23 851 168
1230 452 353 265 717 687 898 1041 145 286 208 528 232 897 l7 97 651 -2 652
-3 -2 -160z"/>
</g>
</svg>
