<?xml version="1.0" encoding="utf-8"?>
<!-- Generator: Adobe Illustrator 23.0.1, SVG Export Plug-In . SVG Version: 6.00 Build 0)  -->
<svg version="1.1" id="Layer_1" xmlns="http://www.w3.org/2000/svg" xmlns:xlink="http://www.w3.org/1999/xlink" x="0px" y="0px"
	 viewBox="0 0 79.1 83" style="enable-background:new 0 0 79.1 83;" xml:space="preserve">
<g id="agave-course_1_">
	<path d="M77.2,39c-0.7-0.1-1.7-0.1-2.6,0c-2.7,0.2-5.3,1-8.4,2.5c0,0-0.1,0-0.1,0.1c1.4-4.4,2.6-8.8,3.3-13
		c1-5.5,1.5-10.5,1.4-15.1c0-0.5,0-1-0.1-1.4c-0.1-0.7-0.5-1.3-1-1.5c-0.5-0.3-1.2-0.2-1.8,0.2c-2,1.3-3.9,2.9-6.1,5.2
		c-4.4,4.6-8.4,10.2-12.1,17.2v0.1l-0.1-0.6c-0.1-0.9-0.2-1.8-0.2-2.7c-0.6-6-1.7-11.8-3.4-17.1c-1.5-4.8-3.1-8.6-5.1-11.8
		c-0.4-0.7-1-1.1-1.6-1.1l0,0c-0.6,0-1.2,0.4-1.6,1.1c-0.8,1.5-1.7,3.1-2.5,4.8C32,13.2,30,21.6,29.1,31.4c0,0.6-0.1,1.2-0.1,1.7
		v0.2c0-0.1-0.1-0.2-0.1-0.3c-3.5-6.5-7.1-11.8-11.2-16.2c-2.5-2.7-4.6-4.5-6.8-5.9c-0.6-0.4-1.3-0.5-1.9-0.2c-0.6,0.3-1,0.9-1,1.7
		c-0.1,1.1-0.1,2-0.1,2.8C8,22.1,9.1,29.3,11.2,37c0.3,1.2,0.7,2.4,1.1,3.6c0.1,0.4,0.2,0.8,0.4,1.2c-0.2-0.1-0.4-0.2-0.7-0.3
		c-0.8-0.4-1.6-0.7-2.4-1c-3-1.1-5.5-1.5-7.9-1.2c-0.6,0.1-1.1,0.4-1.4,0.8c-0.3,0.5-0.4,1-0.3,1.6c0.1,0.4,0.2,0.7,0.3,1.1
		C3.8,54,9.7,63.9,18,72.2c3.7,3.7,7.5,6.4,11.5,8.4c3.3,1.6,6.7,2.4,10.1,2.4c2.1,0,4.3-0.3,6.4-1c3.8-1.1,7.3-3.1,10.9-6.1
		c10.5-8.6,17.9-19.8,22-33.3c0.2-0.5,0.2-1,0.2-1.5C78.9,39.8,78.2,39,77.2,39z M42.7,78.3c-0.3,0.1-0.6,0.2-0.9,0.2
		c0.2-0.4,0.3-0.8,0.5-1.2c0.4-0.9,0.7-1.9,1.1-2.9c3.8-9.1,9-16.9,15.7-23.1c3.9-3.6,7.5-6,11.4-7.4c1.5-0.6,2.9-0.9,4.3-1
		l-0.1,0.2c-0.1,0.4-0.3,0.8-0.4,1.2c-3.9,10.5-9.8,19.3-17.6,26.3c-3.9,3.5-7.5,5.7-11.3,7C44.4,77.9,43.5,78.1,42.7,78.3z
		 M67,18.2c-0.6,8.5-2.5,16.9-5.7,25.8c-0.1,0.3-0.3,0.6-0.5,0.7C56.5,48,52.5,52,48.7,57c0-0.3,0.1-0.6,0.1-0.9
		c0.2-1.3,0.4-2.6,0.4-3.9c0.2-2.5,0.3-5,0.4-7.4c0.1-1.2,0.1-2.4,0.2-3.6c0-0.2,0-0.5,0.1-0.6c3.7-8.1,7.5-14.3,12.1-19.7
		c1.1-1.2,2.2-2.4,3.4-3.5c0.5-0.5,1-1,1.5-1.4c0,0.1,0,0.2,0,0.4C67.1,17,67.1,17.6,67,18.2z M37.5,29.8c0,0.3,0,0.7,0.1,1
		c0.2,0.8,1,1.4,1.8,1.3c0.9-0.1,1.6-0.8,1.7-1.7c0-0.1,0-0.4,0-0.6V9.7c1.6,4.2,2.8,8.5,3.7,13.4c1.3,7.3,1.8,15,1.4,22.9
		c-0.3,7.1-1.3,13.5-2.9,19.6v0.1c0,0.2-0.1,0.3-0.1,0.4c-1.3,2.8-2.6,5.5-3.9,8.3c-0.3-0.7-0.7-1.5-1-2.2c-0.9-1.9-1.7-3.8-2.5-5.7
		c-0.6-1.4-0.9-2.8-1.2-4.3c-1.9-8.3-2.5-17.1-2.1-26.6c0.4-8,1.6-15.2,3.7-22c0.3-1.1,0.7-2.2,1.1-3.2c0.1-0.2,0.1-0.4,0.2-0.6v2.3
		C37.5,17.9,37.5,23.9,37.5,29.8z M8.9,44.2c3.7,1.5,7,3.8,10.7,7.2c6.9,6.5,12.1,14.2,15.9,23.8c0.3,0.8,0.6,1.5,0.9,2.3
		c0.1,0.3,0.2,0.7,0.4,1l0,0c-2-0.3-4-0.9-6.2-2c-3.9-1.9-7.6-4.7-11.3-8.6C12.6,61,7.5,52.6,4.2,43.1c0-0.1-0.1-0.2-0.1-0.2
		C5.5,43,7.2,43.4,8.9,44.2z M28.8,55.8c-3.5-4.5-7.1-8.1-11.1-11c-0.1-0.1-0.3-0.3-0.3-0.5c-2.8-7.7-4.6-14.9-5.4-22.1
		c-0.2-1.5-0.3-3-0.4-4.5c0-0.6-0.1-1.2-0.1-1.7c0.2,0.2,0.4,0.3,0.6,0.5c0.6,0.5,1.1,1,1.7,1.6c4,3.9,7.4,8.6,10.6,14.2
		c1.1,2,2.1,4,3.1,6c0.4,0.8,0.8,1.5,1.2,2.3c0.1,0.2,0.2,0.5,0.2,0.7c0.1,5.5,0.4,10.3,1.1,15c0.1,0.3,0.1,0.6,0.1,0.9
		C29.4,56.6,29.1,56.2,28.8,55.8z"/>
	<path d="M37.5,37.2c0.1,1,0.9,1.8,1.8,1.8l0,0c1,0,1.7-0.8,1.8-1.9c0-0.2,0-0.3,0-0.5v-0.2v-0.3c0-0.2,0-0.4,0-0.5
		c-0.1-1-0.8-1.8-1.7-1.8c-1,0-1.8,0.7-1.9,1.7C37.4,36,37.4,36.6,37.5,37.2z"/>
</g>
</svg>
