<svg xmlns="http://www.w3.org/2000/svg" viewBox="0 0 223.9 275.1"><path d="M110.9 128.9c0.3 0 0.6 0 0.9 0 13.7 0 26.5-5.2 36.2-14.8 10-9.8 15.5-22.8 15.5-36.7 0-13.8-5.3-26.8-15.1-36.6 -9.7-9.8-22.7-15.1-36.5-15.2 0 0 0 0-0.1 0 -28.4 0-51.6 23-51.7 51.4 0 13.7 5.2 26.7 14.9 36.4C84.6 123.2 97.3 128.7 110.9 128.9zM68.9 76.6c0.2-11.5 4.8-22.2 13-30.1 8.1-7.8 18.7-12.1 30-12.1 0.1 0 0.2 0 0.4 0 11.4 0.1 22 4.6 30.1 12.8 8.1 8.2 12.5 18.9 12.4 30.2 -0.1 11.8-4.7 22.7-13 30.8 -8.1 7.9-19.1 12.3-30.8 12.1 -11.5-0.2-22.2-4.8-30.1-13C73 99.1 68.7 88.2 68.9 76.6z"/><path d="M223.7 248c-1.2-5.4-8.2-9.8-13.8-12.1 -12.8-5-26.6-7-40-8.9 -3.2-0.5-6.6-0.9-9.8-1.4 -1.2-0.2-2.4 0.1-3.4 0.8 -0.9 0.7-1.5 1.7-1.7 2.8 -0.2 1.3 0.1 2.5 0.8 3.4 0.7 0.9 1.8 1.5 3.2 1.7 1.6 0.2 3.2 0.4 4.8 0.5 1 0.1 1.9 0.2 2.9 0.3 12.4 1.3 23.5 3.5 33.8 6.4 4.5 1.3 9.3 2.9 13.2 6 0.9 0.8 1.3 1.3 1.3 1.8 0 0.5-0.5 0.9-1.4 1.5 -2.5 1.5-5.2 3.2-8 4.2 -10.4 3.9-21.1 5.9-34.1 7.6 -15.8 2.1-32.6 3.3-49.8 3.6 -19.2 0.3-35-0.2-49.7-1.5 -13.8-1.2-28.6-2.8-43.4-6.5 -6.8-1.7-12.8-3.4-18.1-7.2 -1.2-0.9-1.7-1.4-1.7-1.9 0-0.5 0.4-1 1.5-1.9 0.7-0.6 1.5-1.1 2.3-1.5 0.9-0.4 1.9-0.8 2.8-1.2 2.7-1.2 5.4-2.4 8.2-3.2 14.3-4.2 29.2-6 40.5-7.1 1.7-0.2 3-0.8 3.9-1.8 0.7-0.8 1-1.9 0.9-3.1 -0.1-1.2-0.6-2.3-1.5-2.9 -1-0.8-2.4-1.1-4.1-0.9 -1.9 0.3-3.8 0.5-5.6 0.7 -4.5 0.6-9.2 1.2-13.8 2l-0.6 0.1c-6.2 1-12.6 2.1-18.7 3.9 -5.1 1.4-10.5 3.5-16.6 6.4 -2.2 1.1-4.5 3.1-6.3 5.6 -3 4.3-1.5 10 3.6 13.8 5.2 3.8 11.3 5.9 17.2 7.6 13.1 3.7 27.4 6.1 44.9 7.5 15.7 1.2 30.2 1.9 44.3 1.9 0.9 0 1.8 0 2.7 0 20.1 0 38.7-1.1 56.9-3.5 10.7-1.4 23.2-3.4 35.2-7.5 5.3-1.8 10.8-4 14.9-8.5C223.5 253.2 224.3 250.6 223.7 248z"/><path d="M41.5 155.1c7 15.8 15.3 30.5 24.9 43.7 6.7 9.2 14.4 19 24.4 30.7 4.2 4.9 8.9 9.6 13.5 14 1.4 1.4 2.8 2.8 4.2 4.2 1.1 1.1 2.2 1.7 3.4 1.7 1.1 0 2.3-0.6 3.6-1.7 0.5-0.4 1-0.9 1.5-1.4 11.2-10.8 22-22.9 32-36 16-20.9 27.8-41.3 36.2-62.2 8.5-21.3 13-42.4 12.8-60.9 -0.2-21.2-6.2-39.3-17.9-53.9C160.6 9.3 135.2-1.9 104.4 0.3 88 1.4 72.8 7.3 59.1 18 53 22.7 47.6 28.1 43.2 34 31 50.1 25.2 70.1 26.2 93.6 27.1 117.8 35 140.4 41.5 155.1zM36.4 68.3c3.4-13.8 10-25.9 19.7-36 10.2-10.6 22.8-17.9 37.4-21.5 11-2.8 22-3.1 32.8-0.9 15.7 3.1 29.2 10.3 40.3 21.4 5.7 5.8 10.5 12.2 14 19 4.2 8.2 6.8 16 7.9 24.1 1.9 15 0.5 31-4.6 50.1 -4 15.1-10.3 30.3-19.4 46.5 -7 12.6-15.1 24.7-24.9 37.2 -8.1 10.3-16.8 20.2-26 29.3 -0.4 0.4-0.8 0.7-1.2 1.1 -0.2 0.2-0.4 0.3-0.6 0.5 -1-1-2.1-2-3.1-3.1 -2.3-2.3-4.5-4.5-6.7-6.8 -10.1-10.8-19.4-22.2-27.6-33.9 -12-17-21.1-33.5-27.9-50.5 -5.8-14.4-9.4-28.1-11-41.8C34.3 92.6 33.4 80.5 36.4 68.3z"/></svg>
