<svg xmlns="http://www.w3.org/2000/svg" viewBox="0 0 232.1 232"><path d="M132.1 128.1c-0.8 0.1-1.7-0.1-2.4 0.2 -0.9 0.5-1.6 1.3-2.4 2 -12 12-24 24-36 36 -2.6 2.6-2.7 3.7-1.3 7 5.6 13 11.2 26 16.8 39 0.2 0.6 0.3 1.6-0.1 2 -2.1 2.3-4.3 4.4-6.7 6.8 -0.7-0.6-1.2-1.1-1.8-1.6 -11.6-11.6-23.2-23.2-34.8-34.8 -2.3-2.3-3.9-2.5-6.9-1 -3.9 2-7.9 4-11.9 5.9 -0.6 0.3-1.7 0.1-2.1-0.3 -0.4-0.4-0.6-1.5-0.4-2.1 1.9-4.1 4-8.1 6-12.1 1.4-2.8 1.2-4.4-1-6.7 -11.5-11.5-23-23-34.5-34.5 -0.6-0.6-1.2-1.2-2-2 2.4-2.4 4.6-4.7 6.9-6.8 0.4-0.4 1.5-0.3 2.1 0 6.9 2.9 13.8 6 20.7 8.9 6.5 2.8 13 5.5 19.4 8.3 2.3 1 4 0.2 5.6-1.4 6.2-6.2 12.4-12.3 18.5-18.5 6.1-6.1 12.2-12.3 18.4-18.4 2.8-2.9 2.9-4.9 0-7.8C94.2 88.3 86.1 80.2 78 72.1 62.5 56.5 46.9 41 31.3 25.4c-0.4-0.4-0.9-0.9-1.4-1.4 0.4-0.5 0.7-1 1.1-1.4 3.5-3.5 7.1-7 10.5-10.6 1.4-1.5 2.4-1.4 4-0.5 8.7 5.3 17.4 10.5 26.1 15.7 17.5 10.5 34.9 20.9 52.4 31.4 1.9 1.1 3.7 2.3 5.7 3.4l9.3 5.4 3.4-3.4C156.8 49.6 171 35 185.7 20.8c7.9-7.6 17.7-11.7 28.8-11.9 5.7-0.1 8.7 2.9 8.6 8.8 -0.1 9-3.5 17-8.4 24.3 -1.3 1.9-2.8 3.6-4.4 5.2 -14.3 14.3-31.7 31.7-46 45.9l2.3 3.6c8.3 13.8 16.7 27.7 25 41.5 9.6 16 19.1 32 28.8 48 1.2 1.9 0.9 3-0.7 4.5 -3.9 3.6-7.6 7.5-11.5 11.5 -0.8-0.8-1.5-1.5-2.1-2.1 -23.2-23.2-46.3-46.3-69.5-69.5 -0.8-0.8-1.6-1.6-2.5-2.2C133.5 128.1 132.7 128.2 132.1 128.1zM204.3 210.9c2.7 2.7 4.9 2.7 7.7 0 6-6 11.9-11.9 17.9-17.9 2.2-2.2 2.4-3.8 0.8-6.5 -4.2-7-8.3-14-12.5-21 -9.8-16.3-19.6-32.6-29.3-48.8 -4.4-7.3-8.8-14.7-13.3-22.1 0.7-0.7 1.3-1.3 2-2 12.5-12.5 25-25.2 37.6-37.6 9.3-9.1 14.6-20 16.6-32.7 0.8-5.1 0.4-10.3-2.4-14.8 -3.8-6.1-9.9-7.9-16.5-7.4 -13.4 1-25.1 6.2-34.7 15.8 -13 12.9-25.9 25.9-38.8 38.8 -0.6 0.6-1.2 1.2-1.7 1.7l-7.1-4C114.4 42.6 98.2 32.9 82 23.2 69.9 16 57.9 8.7 45.8 1.5c-3-1.8-4.5-1.6-7 0.9 -6 6-12 11.9-17.9 17.9 -2.3 2.3-2.3 4.8-0.1 7.1 5.2 5.2 10.4 10.4 15.5 15.6 18.5 18.5 37 37.1 55.6 55.5 1.7 1.7 1.4 2.3 0 3.7 -9.9 9.8-19.8 19.7-29.7 29.7 -1.1 1.1-2 1.3-3.4 0.7 -13.1-5.6-26.2-11.2-39.2-16.8 -2.5-1.1-4-0.8-6 1.1 -3.7 3.7-7.5 7.4-11.2 11.2 -3.2 3.2-3.2 5.1 0 8.4C14.2 148 26 159.8 37.8 171.6c1.2 1.2 1.4 2.2 0.6 3.7 -2.1 3.9-4 7.9-5.9 11.9 -1.1 2.3-0.8 3.8 1 5.6 1.8 1.9 3.7 3.7 5.6 5.6 2.1 2.1 3.4 2.3 6.1 1 4.1-2 8.1-4.1 12.3-6 0.6-0.3 1.8-0.2 2.3 0.3 5.6 5.4 11.1 11 16.7 16.5 6.8 6.8 13.5 13.6 20.2 20.3 2.2 2.2 4.5 2.1 6.7-0.1 4-4 8-8 12.1-12 1.7-1.7 2.1-3.5 1.1-5.8 -2-4.8-4.1-9.5-6.1-14.3 -3.6-8.3-7.1-16.6-10.8-24.9 -0.6-1.4-0.5-2.3 0.6-3.4 2.5-2.3 4.9-4.9 7.4-7.3 8.1-8.1 16.3-16.2 24.4-24.3L204.3 210.9z"/></svg>
